<svg width="208" height="43" viewBox="0 0 208 43" fill="none" xmlns="http://www.w3.org/2000/svg">
<rect x="23" y="0.5" width="184" height="42" fill="#3F67E1"/>
<g clip-path="url(#clip0)">
<path d="M14.6111 0.769531H0.269531V42.3894H14.6111V0.769531Z" fill="black"/>
<path d="M14.3415 42.1199H0.555873V1.0543H14.3415V42.1199ZM14.8974 0.5H14.3415H0.555873H0V1.0543V42.1199V42.6742H0.555873H14.3415H14.8974V42.1199V1.0543V0.5Z" fill="white"/>
<path d="M28.4128 0.769531H14.0713V42.3894H28.4128V0.769531Z" fill="black"/>
<path d="M28.1277 42.1199H14.342V1.0543H28.1277V42.1199ZM28.6835 0.5H28.1277H14.342H13.7861V1.0543V42.1199V42.6742H14.342H28.1277H28.6835V42.1199V1.0543V0.5Z" fill="white"/>
<path d="M42.1989 0.769531H27.8574V42.3894H42.1989V0.769531Z" fill="black"/>
<path d="M41.9284 42.1199H28.1428V1.0543H41.9284V42.1199ZM42.4843 0.5H41.9284H28.1428H27.5869V1.0543V42.1199V42.6742H28.1428H41.9284H42.4843V42.1199V1.0543V0.5Z" fill="white"/>
<path d="M55.9841 0.769531H41.6426V42.3894H55.9841V0.769531Z" fill="black"/>
<path d="M55.7146 42.1199H41.9289V1.0543H55.7146V42.1199ZM56.2704 0.5H55.7146H41.9289H41.373V1.0543V42.1199V42.6742H41.9289H55.7146H56.2704V42.1199V1.0543V0.5Z" fill="white"/>
<path d="M69.7702 0.769531H55.4287V42.3894H69.7702V0.769531Z" fill="black"/>
<path d="M69.4997 42.1199H55.7141V1.0543H69.4997V42.1199ZM70.0556 0.5H69.4997H55.7141H55.1582V1.0543V42.1199V42.6742H55.7141H69.4997H70.0556V42.1199V1.0543V0.5Z" fill="white"/>
<path d="M83.5554 0.769531H69.2139V42.3894H83.5554V0.769531Z" fill="black"/>
<path d="M83.2859 42.1199H69.5002V1.0543H83.2859V42.1199ZM83.8417 0.5H83.2859H69.5002H68.9443V1.0543V42.1199V42.6742H69.5002H83.2859H83.8417V42.1199V1.0543V0.5Z" fill="white"/>
<path d="M97.3571 0.769531H83.0156V42.3894H97.3571V0.769531Z" fill="black"/>
<path d="M97.071 42.1199H83.2854V1.0543H97.071V42.1199ZM97.6269 0.5H97.071H83.2854H82.7295V1.0543V42.1199V42.6742H83.2854H97.071H97.6269V42.1199V1.0543V0.5Z" fill="white"/>
<path d="M111.142 0.769531H96.8008V42.3894H111.142V0.769531Z" fill="black"/>
<path d="M110.857 42.1199H97.0715V1.0543H110.857V42.1199ZM111.413 0.5H110.857H97.0715H96.5156V1.0543V42.1199V42.6742H97.0715H110.857H111.413V42.1199V1.0543V0.5Z" fill="white"/>
<path d="M124.928 0.769531H110.587V42.3894H124.928V0.769531Z" fill="black"/>
<path d="M124.658 42.1199H110.857V1.0543H124.642V42.1199H124.658ZM125.214 0.5H124.658H110.857H110.301V1.0543V42.1199V42.6742H110.857H124.642H125.198V42.1199V1.0543V0.5H125.214Z" fill="white"/>
<path d="M138.715 0.769531H124.373V42.3894H138.715V0.769531Z" fill="black"/>
<path d="M138.444 42.1199H124.658V1.0543H138.444V42.1199ZM139 0.5H138.444H124.658H124.103V1.0543V42.1199V42.6742H124.658H138.444H139V42.1199V1.0543V0.5Z" fill="white"/>
<path d="M4.01796 15.7354H0.555664V27.2014H3.93855C5.41558 27.2014 7.68672 27.1064 9.24316 25.6177C9.92609 24.9525 10.7996 23.6539 10.7996 21.4209C10.7996 20.2489 10.5614 18.6019 9.24316 17.3191C7.7026 15.8462 5.76499 15.7512 4.01796 15.7354ZM5.92381 23.8598C5.17735 24.4616 3.98619 24.4933 3.36679 24.4933H1.92152V18.4277H3.39856C4.31972 18.4277 5.27264 18.4435 5.98734 19.0611C6.57497 19.5679 6.89262 20.4706 6.89262 21.4367C6.89262 22.5136 6.47968 23.4005 5.92381 23.8598Z" fill="white"/>
<path d="M16.1682 22.656L22.1558 22.6718V20.1695H16.1682V18.4433H23.4422V15.751H14.3418V27.217H23.6169V24.5406L16.1682 24.5247V22.656Z" fill="white"/>
<path d="M36.7512 21.2943C36.1794 20.8509 35.29 20.5183 33.7336 20.2966L32.3042 20.0748C31.2401 19.9165 30.843 19.8214 30.5413 19.7423C30.2395 19.6631 29.7472 19.4889 29.7472 18.9187C29.7472 18.6495 29.8425 18.3169 30.3031 18.0635C30.716 17.8576 31.2401 17.826 31.6848 17.826C32.5901 17.826 32.9712 17.9527 33.1618 18.0635C33.7018 18.3486 33.7654 18.792 33.7495 19.0771H37.2912C37.3229 18.2061 37.1324 17.0658 35.703 16.2264C35.0995 15.8622 33.9559 15.4346 31.7483 15.4346C29.8266 15.4346 28.7148 15.783 28.1113 16.0522V21.9119C28.699 22.102 29.366 22.2128 30.1284 22.3395L31.8119 22.6246C32.4154 22.7196 32.8442 22.7671 33.2889 22.9572C33.6859 23.0997 34.0512 23.3531 34.0512 23.8916C34.0512 24.0816 34.0036 24.5726 33.4001 24.8735C32.9712 25.0794 32.463 25.0952 31.9389 25.0952C31.383 25.0952 30.6683 25.0477 30.2078 24.6834C29.7789 24.335 29.7154 23.8599 29.7154 23.5273V23.464H28.1272V26.9481C29.3343 27.5341 30.8272 27.5658 32.066 27.5658C33.7018 27.5658 35.3853 27.4708 36.5288 26.6156C37.1641 26.1405 37.8947 25.2536 37.8947 23.7807C37.9106 23.0047 37.7041 22.0228 36.7512 21.2943Z" fill="white"/>
<path d="M60.0025 23.1312H62.0831C61.9878 23.7805 61.6543 24.2239 61.2255 24.5249C60.6696 24.9049 60.0661 24.9525 59.4626 24.9525C58.7002 24.9525 57.922 24.8891 57.2391 24.1764C56.8102 23.7172 56.3973 22.9253 56.3973 21.6267C56.3973 20.5339 56.6673 19.5362 57.2549 18.9185C57.9061 18.2375 58.7796 18.1267 59.4943 18.1267C60.0025 18.1267 60.6061 18.19 61.0984 18.5068C61.6702 18.8868 61.7972 19.3778 61.829 19.7104H65.5454C65.4978 18.7285 65.1642 17.3823 63.5284 16.3846C62.1943 15.5769 60.5584 15.4502 59.272 15.4502C58.0649 15.4502 56.842 15.5611 55.6826 16.0995V27.1538C56.6991 27.5497 57.7632 27.5814 58.8273 27.5814C59.7802 27.5814 60.7649 27.5656 61.6702 27.0905C62.4007 26.7104 62.7819 26.1878 63.0201 25.7601L63.1631 27.2488H65.6089V21.009H59.9549L60.0025 23.1312Z" fill="white"/>
<path d="M92.1317 21.3255C91.5599 20.8821 90.6706 20.5495 89.1141 20.3278L87.6847 20.1061C86.6206 19.9477 86.2236 19.8527 85.9218 19.7735C85.6201 19.6943 85.1277 19.5201 85.1277 18.95C85.1277 18.6808 85.223 18.3482 85.6836 18.0948C86.0965 17.8889 86.6206 17.8414 87.0653 17.8572C87.9706 17.8572 88.3518 17.9839 88.5424 18.0948C89.0824 18.3798 89.1459 18.8233 89.13 19.1084H92.6717C92.7035 18.2373 92.5129 17.097 91.0835 16.2577C90.48 15.8934 89.3365 15.4658 87.1289 15.4658C84.9371 15.4658 83.8095 15.9093 83.2695 16.1943V21.8798C83.9048 22.1332 84.6672 22.2599 85.5089 22.3866L87.1924 22.6717C87.7959 22.7667 88.2247 22.8142 88.6694 23.0043C89.0665 23.1468 89.4318 23.4002 89.4318 23.9387C89.4318 24.1287 89.3841 24.6197 88.7806 24.9206C88.3518 25.1265 87.8436 25.1423 87.3194 25.1423C86.7636 25.1423 86.0489 25.0948 85.5883 24.7305C85.1595 24.3821 85.096 23.907 85.096 23.5744V23.5111H83.2854V26.8844C84.5401 27.5812 86.1442 27.6129 87.4465 27.6129C89.0824 27.6129 90.7659 27.5179 91.9094 26.6627C92.5446 26.1875 93.2752 25.3007 93.2752 23.8278C93.2911 23.036 93.0846 22.0541 92.1317 21.3255Z" fill="white"/>
<path d="M114.414 15.4824C113.398 15.4824 112.095 15.5933 110.856 16.1001V26.9802C112.079 27.4869 113.382 27.5978 114.382 27.5978C115.907 27.5978 118.162 27.3603 119.735 25.7765C120.497 25.0164 121.339 23.7177 121.355 21.5322C121.355 19.3467 120.497 18.048 119.75 17.2879C118.178 15.72 115.923 15.4824 114.414 15.4824ZM116.526 24.1453C115.875 24.7946 115.033 24.9213 114.382 24.9213C113.747 24.9213 112.905 24.8105 112.254 24.1453C111.793 23.686 111.333 22.8467 111.333 21.5322C111.333 20.2177 111.793 19.3783 112.254 18.9349C112.905 18.2856 113.747 18.1589 114.398 18.1589C115.033 18.1589 115.875 18.2698 116.526 18.9349C116.987 19.3942 117.448 20.2336 117.448 21.548C117.448 22.8467 116.987 23.686 116.526 24.1453Z" fill="white"/>
<path d="M124.658 18.4909H126.453V27.2805H130.09L130.106 18.5068H133.949V15.8145H124.658V18.4909Z" fill="white"/>
<path d="M102.455 15.7988H97.0713V27.2649H99.3424V23.7966H102.058C103.916 23.7966 105.314 23.7174 106.331 22.5613C106.855 21.9753 107.299 21.0409 107.299 19.7423C107.299 18.3486 106.759 17.4776 106.235 16.9549C105.139 15.878 103.742 15.7988 102.455 15.7988ZM103.202 20.8192C102.805 21.1834 102.154 21.231 101.677 21.231H99.3583V18.4753H101.788C102.566 18.4753 102.916 18.6178 103.122 18.7604C103.376 18.9187 103.615 19.2196 103.615 19.7581C103.615 20.2491 103.424 20.6133 103.202 20.8192Z" fill="white"/>
<path d="M75.5828 22.6882L70.4847 15.7832H69.5V27.2493H70.6276V20.3285L75.7417 27.2493H79.2198L79.2357 15.7832H75.5828V22.6882Z" fill="white"/>
<path d="M51.2197 18.5068V15.8145H47.3604H43.7234H41.9287V18.4909H43.7234V21.5475V24.5882H41.9287V27.2805H43.7234H47.3604H51.2197V24.5882H47.3763V21.5475V18.5068H51.2197Z" fill="white"/>
</g>
<path d="M207.342 42.1103H138.556V1H207.342V42.1103ZM207.897 0H207.342H138.556H138V0.56083V42.1103V42.6712H138.556H207.342H207.897V42.1103V0.56083V0Z" fill="white"/>
<path d="M147.756 26.644C147.092 26.644 146.448 26.556 145.824 26.38C145.208 26.196 144.712 25.96 144.336 25.672L144.996 24.208C145.356 24.472 145.784 24.684 146.28 24.844C146.776 25.004 147.272 25.084 147.768 25.084C148.32 25.084 148.728 25.004 148.992 24.844C149.256 24.676 149.388 24.456 149.388 24.184C149.388 23.984 149.308 23.82 149.148 23.692C148.996 23.556 148.796 23.448 148.548 23.368C148.308 23.288 147.98 23.2 147.564 23.104C146.924 22.952 146.4 22.8 145.992 22.648C145.584 22.496 145.232 22.252 144.936 21.916C144.648 21.58 144.504 21.132 144.504 20.572C144.504 20.084 144.636 19.644 144.9 19.252C145.164 18.852 145.56 18.536 146.088 18.304C146.624 18.072 147.276 17.956 148.044 17.956C148.58 17.956 149.104 18.02 149.616 18.148C150.128 18.276 150.576 18.46 150.96 18.7L150.36 20.176C149.584 19.736 148.808 19.516 148.032 19.516C147.488 19.516 147.084 19.604 146.82 19.78C146.564 19.956 146.436 20.188 146.436 20.476C146.436 20.764 146.584 20.98 146.88 21.124C147.184 21.26 147.644 21.396 148.26 21.532C148.9 21.684 149.424 21.836 149.832 21.988C150.24 22.14 150.588 22.38 150.876 22.708C151.172 23.036 151.32 23.48 151.32 24.04C151.32 24.52 151.184 24.96 150.912 25.36C150.648 25.752 150.248 26.064 149.712 26.296C149.176 26.528 148.524 26.644 147.756 26.644ZM156.668 26.644C155.812 26.644 155.036 26.46 154.34 26.092C153.652 25.716 153.108 25.2 152.708 24.544C152.316 23.88 152.12 23.132 152.12 22.3C152.12 21.468 152.316 20.724 152.708 20.068C153.108 19.404 153.652 18.888 154.34 18.52C155.036 18.144 155.816 17.956 156.68 17.956C157.408 17.956 158.064 18.084 158.648 18.34C159.24 18.596 159.736 18.964 160.136 19.444L158.888 20.596C158.32 19.94 157.616 19.612 156.776 19.612C156.256 19.612 155.792 19.728 155.384 19.96C154.976 20.184 154.656 20.5 154.424 20.908C154.2 21.316 154.088 21.78 154.088 22.3C154.088 22.82 154.2 23.284 154.424 23.692C154.656 24.1 154.976 24.42 155.384 24.652C155.792 24.876 156.256 24.988 156.776 24.988C157.616 24.988 158.32 24.656 158.888 23.992L160.136 25.144C159.736 25.632 159.24 26.004 158.648 26.26C158.056 26.516 157.396 26.644 156.668 26.644ZM169.153 18.1V26.5H167.209V23.056H163.393V26.5H161.449V18.1H163.393V21.412H167.209V18.1H169.153ZM175.209 26.644C174.337 26.644 173.549 26.456 172.845 26.08C172.149 25.704 171.601 25.188 171.201 24.532C170.809 23.868 170.613 23.124 170.613 22.3C170.613 21.476 170.809 20.736 171.201 20.08C171.601 19.416 172.149 18.896 172.845 18.52C173.549 18.144 174.337 17.956 175.209 17.956C176.081 17.956 176.865 18.144 177.561 18.52C178.257 18.896 178.805 19.416 179.205 20.08C179.605 20.736 179.805 21.476 179.805 22.3C179.805 23.124 179.605 23.868 179.205 24.532C178.805 25.188 178.257 25.704 177.561 26.08C176.865 26.456 176.081 26.644 175.209 26.644ZM175.209 24.988C175.705 24.988 176.153 24.876 176.553 24.652C176.953 24.42 177.265 24.1 177.489 23.692C177.721 23.284 177.837 22.82 177.837 22.3C177.837 21.78 177.721 21.316 177.489 20.908C177.265 20.5 176.953 20.184 176.553 19.96C176.153 19.728 175.705 19.612 175.209 19.612C174.713 19.612 174.265 19.728 173.865 19.96C173.465 20.184 173.149 20.5 172.917 20.908C172.693 21.316 172.581 21.78 172.581 22.3C172.581 22.82 172.693 23.284 172.917 23.692C173.149 24.1 173.465 24.42 173.865 24.652C174.265 24.876 174.713 24.988 175.209 24.988ZM185.334 26.644C184.462 26.644 183.674 26.456 182.97 26.08C182.274 25.704 181.726 25.188 181.326 24.532C180.934 23.868 180.738 23.124 180.738 22.3C180.738 21.476 180.934 20.736 181.326 20.08C181.726 19.416 182.274 18.896 182.97 18.52C183.674 18.144 184.462 17.956 185.334 17.956C186.206 17.956 186.99 18.144 187.686 18.52C188.382 18.896 188.93 19.416 189.33 20.08C189.73 20.736 189.93 21.476 189.93 22.3C189.93 23.124 189.73 23.868 189.33 24.532C188.93 25.188 188.382 25.704 187.686 26.08C186.99 26.456 186.206 26.644 185.334 26.644ZM185.334 24.988C185.83 24.988 186.278 24.876 186.678 24.652C187.078 24.42 187.39 24.1 187.614 23.692C187.846 23.284 187.962 22.82 187.962 22.3C187.962 21.78 187.846 21.316 187.614 20.908C187.39 20.5 187.078 20.184 186.678 19.96C186.278 19.728 185.83 19.612 185.334 19.612C184.838 19.612 184.39 19.728 183.99 19.96C183.59 20.184 183.274 20.5 183.042 20.908C182.818 21.316 182.706 21.78 182.706 22.3C182.706 22.82 182.818 23.284 183.042 23.692C183.274 24.1 183.59 24.42 183.99 24.652C184.39 24.876 184.838 24.988 185.334 24.988ZM191.391 18.1H193.335V24.916H197.547V26.5H191.391V18.1Z" fill="white"/>
<defs>
<clipPath id="clip0">
<rect width="139" height="42" fill="white" transform="translate(0 0.5)"/>
</clipPath>
</defs>
</svg>
