<svg width="124" height="124" viewBox="0 0 124 124" fill="none" xmlns="http://www.w3.org/2000/svg">
<circle cx="90.1534" cy="90.1532" r="4.30769" transform="rotate(-90 90.1534 90.1532)" fill="white"/>
<circle cx="32.9229" cy="90.1532" r="4.30769" transform="rotate(-90 32.9229 90.1532)" fill="white"/>
<circle cx="4.30769" cy="90.1532" r="4.30769" transform="rotate(-90 4.30769 90.1532)" fill="white"/>
<circle cx="118.769" cy="90.1532" r="4.30769" transform="rotate(-90 118.769 90.1532)" fill="white"/>
<circle cx="61.5382" cy="90.1532" r="4.30769" transform="rotate(-90 61.5382 90.1532)" fill="white"/>
<circle cx="90.1534" cy="4.30754" r="4.30769" transform="rotate(-90 90.1534 4.30754)" fill="white"/>
<circle cx="32.9229" cy="4.30754" r="4.30769" transform="rotate(-90 32.9229 4.30754)" fill="white"/>
<circle cx="4.30769" cy="4.30754" r="4.30769" transform="rotate(-90 4.30769 4.30754)" fill="white"/>
<circle cx="118.769" cy="4.30754" r="4.30769" transform="rotate(-90 118.769 4.30754)" fill="white"/>
<circle cx="61.5382" cy="4.30754" r="4.30769" transform="rotate(-90 61.5382 4.30754)" fill="white"/>
<circle cx="90.1534" cy="61.538" r="4.30769" transform="rotate(-90 90.1534 61.538)" fill="white"/>
<circle cx="32.9229" cy="61.538" r="4.30769" transform="rotate(-90 32.9229 61.538)" fill="white"/>
<circle cx="4.30769" cy="61.538" r="4.30769" transform="rotate(-90 4.30769 61.538)" fill="white"/>
<circle cx="118.769" cy="61.538" r="4.30769" transform="rotate(-90 118.769 61.538)" fill="white"/>
<circle cx="61.5382" cy="61.538" r="4.30769" transform="rotate(-90 61.5382 61.538)" fill="white"/>
<circle cx="90.1534" cy="32.9228" r="4.30769" transform="rotate(-90 90.1534 32.9228)" fill="white"/>
<circle cx="32.9229" cy="32.9228" r="4.30769" transform="rotate(-90 32.9229 32.9228)" fill="white"/>
<circle cx="4.30769" cy="32.9228" r="4.30769" transform="rotate(-90 4.30769 32.9228)" fill="white"/>
<circle cx="118.769" cy="32.9228" r="4.30769" transform="rotate(-90 118.769 32.9228)" fill="white"/>
<circle cx="61.5382" cy="32.9228" r="4.30769" transform="rotate(-90 61.5382 32.9228)" fill="white"/>
<circle cx="90.1534" cy="118.768" r="4.30769" transform="rotate(-90 90.1534 118.768)" fill="white"/>
<circle cx="32.9229" cy="118.768" r="4.30769" transform="rotate(-90 32.9229 118.768)" fill="white"/>
<circle cx="4.30769" cy="118.768" r="4.30769" transform="rotate(-90 4.30769 118.768)" fill="white"/>
<circle cx="118.769" cy="118.768" r="4.30769" transform="rotate(-90 118.769 118.768)" fill="white"/>
<circle cx="61.5382" cy="118.768" r="4.30769" transform="rotate(-90 61.5382 118.768)" fill="white"/>
</svg>
